<svg xmlns="http://www.w3.org/2000/svg" width="160" height="48" viewBox="0 0 160 48">
  <rect width="160" height="48" rx="8" fill="#000"/>
  <g fill="#fff">
    <path d="M33.5 24.5c0-3.1 1.7-5.9 4.2-7.4-.6-.9-1.4-1.6-2.4-2.1-1-.5-2.1-.8-3.3-.8-2.8-.3-5.5 1.7-6.9 1.7-1.5 0-3.7-1.6-6.1-1.6-3.1.1-6 1.8-7.6 4.7-3.3 5.7-.8 14.1 2.3 18.7 1.6 2.3 3.4 4.8 5.8 4.7 2.4-.1 3.2-1.5 6.1-1.5 2.8 0 3.6 1.5 6.1 1.4 2.5 0 4.1-2.3 5.6-4.5.8-1.1 1.4-2.4 1.8-3.7-2.9-1.2-4.6-4.1-4.6-7.6z"/>
    <path d="M29.1 12c1.3-1.6 2-3.6 1.9-5.7-1.9.2-3.7 1.1-5 2.6-1.3 1.5-2 3.5-1.8 5.5 2 0 3.6-.9 4.9-2.4z"/>
    <text x="48" y="20" font-family="Arial, sans-serif" font-size="9" font-weight="400">App Storeから</text>
    <text x="48" y="34" font-family="Arial, sans-serif" font-size="14" font-weight="600">ダウンロード</text>
  </g>
</svg>
