<svg xmlns="http://www.w3.org/2000/svg" viewBox="0 0 96 96">
<defs><clipPath id="c"><circle cx="48" cy="48" r="48"/></clipPath></defs>
<g clip-path="url(#c)">
<circle cx="48" cy="48" r="48" fill="#FBD9D3"/>
<path d="M48 13 C32 13 25 26 27 44 C28 54 27 62 24 68 L38 64 L36 42 L62 40 L60 64 L72 68 C69 62 68 54 69 44 C71 26 64 13 48 13 Z" fill="#E96A5C"/><ellipse cx="48" cy="43" rx="15" ry="18" fill="#FFFFFF"/><rect x="42" y="56" width="12" height="12" fill="#FFFFFF"/><path d="M48 12 C33 12 26 25 28 40 C36 34 44 24 50 24 C58 28 64 34 68 40 C70 25 63 12 48 12 Z" fill="#E96A5C"/>
<path d="M20 96 Q24 71 48 71 Q72 71 76 96 Z" fill="#FFF4F1"/>

</g></svg>