<svg xmlns="http://www.w3.org/2000/svg" viewBox="0 0 96 96">
<defs><clipPath id="c"><circle cx="48" cy="48" r="48"/></clipPath></defs>
<g clip-path="url(#c)">
<circle cx="48" cy="48" r="48" fill="#FBD9D3"/>
<path d="M48 12 C27 12 21 30 24 48 C26 60 23 70 17 80 L37 76 C33 64 33 52 34 44 L62 44 C63 52 63 64 59 76 L79 80 C73 70 70 60 72 48 C75 30 69 12 48 12 Z" fill="#E96A5C"/><ellipse cx="48" cy="43" rx="15" ry="18" fill="#FFFFFF"/><rect x="42" y="56" width="12" height="12" fill="#FFFFFF"/><path d="M48 12 C31 12 24 26 26 40 C34 32 40 25 48 25 C56 25 62 32 70 40 C72 26 65 12 48 12 Z" fill="#E96A5C"/>
<path d="M20 96 Q24 71 48 71 Q72 71 76 96 Z" fill="#FFF4F1"/>

</g></svg>