<svg xmlns="http://www.w3.org/2000/svg" viewBox="0 0 96 96">
<defs><clipPath id="c"><circle cx="48" cy="48" r="48"/></clipPath></defs>
<g clip-path="url(#c)">
<circle cx="48" cy="48" r="48" fill="#FBD9D3"/>
<circle cx="66" cy="17" r="8" fill="#E96A5C"/><ellipse cx="48" cy="43" rx="15" ry="18" fill="#FFFFFF"/><rect x="42" y="56" width="12" height="12" fill="#FFFFFF"/><path d="M28 46 C26 22 40 13 48 13 C56 13 70 22 68 46 L63 46 C62 30 55 24 48 24 C41 24 34 30 33 46 Z" fill="#E96A5C"/><path d="M28 46 C28 52 30 58 28 64 L36 58 L33 44 Z" fill="#E96A5C"/>
<path d="M20 96 Q24 71 48 71 Q72 71 76 96 Z" fill="#FFF4F1"/>

</g></svg>