<svg xmlns="http://www.w3.org/2000/svg" viewBox="0 0 96 96">
<defs><clipPath id="c"><circle cx="48" cy="48" r="48"/></clipPath></defs>
<g clip-path="url(#c)">
<circle cx="48" cy="48" r="48" fill="#FBD9D3"/>
<ellipse cx="48" cy="43" rx="15" ry="18" fill="#FFFFFF"/><rect x="42" y="56" width="12" height="12" fill="#FFFFFF"/><path d="M29 42 C27 20 39 13 48 13 C57 13 69 20 67 42 L63 42 C62 28 55 24 48 24 C41 24 34 28 33 42 Z" fill="#E96A5C"/><g fill="none" stroke="#E96A5C" stroke-width="2.4"><circle cx="41" cy="44" r="6"/><circle cx="55" cy="44" r="6"/><path d="M47 44 h2"/></g>
<path d="M20 96 Q24 71 48 71 Q72 71 76 96 Z" fill="#FFF4F1"/>

</g></svg>